<svg width="16" height="16" viewBox="0 0 16 16" fill="none" xmlns="http://www.w3.org/2000/svg">
<path fill-rule="evenodd" clip-rule="evenodd" d="M15.3798 12.7116C15.5435 12.8689 15.5436 13.1309 15.3799 13.2883L12.6774 15.8875C12.4232 16.1319 12 15.9518 12 15.5992L12 10.4037C12 10.0512 12.423 9.87106 12.6772 10.1153L15.3798 12.7116Z" fill="#57965C"/>
<path fill-rule="evenodd" clip-rule="evenodd" d="M7.62255 13.2884C7.45909 13.131 7.45916 12.8693 7.62271 12.712L10.3216 10.1164C10.5757 9.87198 10.9989 10.0521 10.9989 10.4047V15.5988C10.9989 15.9515 10.5755 16.1315 10.3214 15.8869L7.62255 13.2884Z" fill="#DB5C5C"/>
<path d="M14.5352 10.5135C14.8354 9.73336 15 8.8859 15 8C15 4.13401 11.866 1 8 1C4.13401 1 1 4.13401 1 8C1 11.8522 4.1117 14.9776 7.95868 14.9999L6.92897 14.0085C6.35679 13.4576 6.35704 12.5416 6.92953 11.991L9.6284 9.39536C9.90905 9.12545 10.2487 9.00344 10.5821 9.00167C10.9361 8.9998 11.216 9.00054 11.4962 9.00128C11.7738 9.00201 12.0517 9.00274 12.4024 9.00094C12.7402 8.9992 13.0854 9.12064 13.37 9.3941L14.5352 10.5135Z" fill="#25324D"/>
<path d="M14.5352 10.5135C14.8354 9.73336 15 8.8859 15 8C15 4.13401 11.866 1 8 1C4.13401 1 1 4.13401 1 8C1 11.8522 4.1117 14.9776 7.95868 14.9999L6.92897 14.0085C6.88731 13.9684 6.84869 13.9263 6.8131 13.8826C4.06789 13.3318 2 10.9074 2 8C2 4.68629 4.68629 2 8 2C11.3137 2 14 4.68629 14 8C14 8.60885 13.9093 9.19651 13.7407 9.75023L14.5352 10.5135Z" fill="#548AF7"/>
<path d="M7.49869 11.4436C5.90755 11.1539 4.78711 9.77827 4.78711 8C4.78711 5.99378 6.21321 4.5 8.13241 4.5C9.62136 4.5 10.8976 5.39917 11.2118 6.67541H10.1966C9.88241 5.94544 9.1041 5.42334 8.13241 5.42334C6.79332 5.42334 5.82647 6.49655 5.82647 8C5.82647 9.50345 6.79332 10.5767 8.13241 10.5767C8.22888 10.5767 8.32345 10.5715 8.41584 10.5615L7.49869 11.4436Z" fill="#548AF7"/>
</svg>
